{"asset":{"generator":"glTF-Transform v4.2.1","version":"2.0"},"accessors":[{"type":"SCALAR","componentType":5125,"count":277818,"bufferView":0,"byteOffset":0},{"name":"mesh0_norm_accessor","type":"VEC3","componentType":5126,"count":78318,"bufferView":1,"byteOffset":0},{"name":"mesh0_coord_accessor","type":"VEC3","componentType":5126,"count":78318,"max":[0.2800000011920929,0.5358188152313232,0.9988911151885986],"min":[-0.25,-0.6245380640029907,-1.8041124150158794e-16],"bufferView":1,"byteOffset":12},{"type":"VEC2","componentType":5126,"count":78318,"bufferView":1,"byteOffset":24}],"bufferViews":[{"buffer":0,"byteOffset":0,"byteLength":1111272,"target":34963},{"buffer":0,"byteOffset":1111272,"byteLength":2506176,"byteStride":32,"target":34962}],"samplers":[{"magFilter":9728,"minFilter":9728,"wrapS":10497,"wrapT":10497}],"textures":[{"sampler":0,"extensions":{"EXT_texture_webp":{"source":0}}}],"images":[{"name":"PaletteBaseColor","mimeType":"image/webp","uri":"PaletteBaseColor.webp"}],"buffers":[{"name":"Total_buffer","uri":"zoba.bin","byteLength":3617448}],"materials":[{"name":"PaletteMaterial001","doubleSided":true,"pbrMetallicRoughness":{"metallicFactor":0,"baseColorTexture":{"index":0}}}],"meshes":[{"name":"mesh0_mesh","primitives":[{"attributes":{"NORMAL":1,"POSITION":2,"TEXCOORD_0":3},"mode":4,"material":0,"indices":0}]}],"nodes":[{"name":"Part 31","translation":[0.09512200206518173,-0.10309460759162903,-0.493196964263916],"rotation":[0.24184477029109885,0.6644630216068051,0.6644630216068051,-0.24184477029109896],"mesh":0}],"scenes":[{"name":"Root","nodes":[0]}],"scene":0,"extensionsUsed":["EXT_texture_webp"],"extensionsRequired":["EXT_texture_webp"]}